<svg width="37" height="30" viewBox="0 0 37 30" fill="none" xmlns="http://www.w3.org/2000/svg">
<path fill-rule="evenodd" clip-rule="evenodd" d="M14.2575 3.65787C14.6615 3.65787 14.9891 3.33034 14.9891 2.9263C14.9891 2.52226 14.6615 2.19473 14.2575 2.19473C13.8535 2.19473 13.5259 2.52226 13.5259 2.9263C13.5259 3.33034 13.8535 3.65787 14.2575 3.65787ZM14.2575 5.8526C15.8736 5.8526 17.1838 4.54245 17.1838 2.9263C17.1838 1.31015 15.8736 0 14.2575 0C13.4822 0 12.7773 0.301497 12.2537 0.793639C10.85 0.00354745 9.22077 -0.0622698 7.69458 0.329634C5.81312 0.812766 3.98328 2.00437 2.59018 3.58186C1.19339 5.16355 0.170748 7.20771 0.0193486 9.45001C-0.134149 11.7234 0.616812 14.0962 2.58882 16.256C3.39819 17.1425 4.1523 17.9694 4.85689 18.742L4.85852 18.7437C9.15137 23.4508 11.6058 26.1421 13.5183 28.0101C14.8948 29.3547 16.8288 29.9256 18.6819 29.9068C20.5372 29.8879 22.4636 29.279 23.8957 28.0672C24.686 27.3984 26.9591 25.0753 28.9671 22.9943C29.9866 21.9378 30.9599 20.9205 31.6782 20.1674C31.9741 19.8572 32.2268 19.5917 32.4217 19.3867H33.4613C35.2795 19.3867 36.7534 17.9128 36.7534 16.0946V12.071H34.3758V16.0946C34.3758 16.5997 33.9664 17.0091 33.4613 17.0091H29.2548C28.7497 17.0091 28.3403 16.5997 28.3403 16.0946V12.071H25.9627V16.0946C25.9627 17.8736 27.3738 19.3231 29.1378 19.3847C28.5694 19.9787 27.9226 20.6528 27.2562 21.3433C25.195 23.4794 23.0328 25.6828 22.3599 26.2522C21.4145 27.0522 20.0487 27.5151 18.6577 27.5293C17.2645 27.5434 15.9978 27.1084 15.1796 26.3092C13.3203 24.4931 10.9225 21.8641 6.61394 17.1401C5.91045 16.3687 5.15601 15.5415 4.34466 14.6529C2.7848 12.9445 2.28423 11.1999 2.39157 9.61018C2.501 7.98941 3.25155 6.42486 4.37235 5.1557C5.49684 3.88235 6.92899 2.98098 8.28594 2.63254C9.47727 2.32662 10.5253 2.45771 11.3327 3.02126C11.3828 4.59346 12.6731 5.8526 14.2575 5.8526ZM24.4134 0.182894C24.1084 0.182894 23.7416 0.206102 23.3572 0.315228C21.6748 0.792808 18.7795 2.40452 18.0818 5.95857C18.0696 5.96907 18.0565 5.98016 18.0426 5.99186C17.8473 6.15554 17.5539 6.37756 17.1833 6.63487C16.4441 7.14801 15.4591 7.75915 14.463 8.27298C13.1525 8.94892 11.806 10.1939 11.5908 11.9978C11.362 13.9162 11.618 15.4114 12.1554 16.5877C12.6916 17.7612 13.4666 18.5264 14.1269 19.0467C15.0853 19.802 16.2785 20.1183 17.3926 20.1183H23.5852C24.2418 20.1183 24.774 19.5861 24.774 18.9295C24.774 18.2729 24.2418 17.7407 23.5852 17.7407H17.3926C16.7013 17.7407 16.058 17.5413 15.5985 17.1792C15.1257 16.8067 14.6479 16.3216 14.318 15.5996C14.0564 15.027 13.8615 14.2475 13.8866 13.1683H14.1743C14.8813 13.1683 15.4545 12.5952 15.4545 11.8881V10.6078C15.4545 10.5527 15.4496 10.4986 15.4403 10.4461C15.4772 10.4258 15.5148 10.4057 15.5529 10.386C16.6522 9.81905 17.7258 9.15262 18.5392 8.58798C18.9448 8.30641 19.301 8.03949 19.5702 7.81375C19.7026 7.70271 19.8329 7.5859 19.9421 7.47133C19.9961 7.41469 20.0617 7.34125 20.1235 7.2558C20.169 7.19288 20.2888 7.02222 20.3491 6.78106C20.3584 6.74371 20.366 6.70593 20.3716 6.66785C20.7478 4.14184 22.7613 2.95593 24.0065 2.60248C24.0983 2.5764 24.2233 2.56051 24.4134 2.56051H30.957C31.2014 2.56051 31.3914 2.58842 31.5394 2.63884C33.8939 3.44081 34.5374 4.54813 34.5592 5.50636C34.5741 6.16275 35.1183 6.68277 35.7747 6.66785C36.4311 6.65293 36.9511 6.10873 36.9362 5.45234C36.9362 3.5745 35.3194 1.4146 32.306 0.3882C31.8347 0.22767 31.3669 0.182894 30.957 0.182894H24.4134ZM25.1981 8.73526C25.7041 8.73526 26.1286 8.31405 25.9627 7.83603C25.8281 7.44797 25.6067 7.09135 25.3107 6.79538C24.7962 6.28089 24.0984 5.99186 23.3708 5.99186C22.6433 5.99186 21.9455 6.28089 21.431 6.79538C21.135 7.09135 20.9136 7.44797 20.779 7.83603C20.6131 8.31405 21.0376 8.73526 21.5436 8.73526H21.7441C22.0957 8.73526 22.3781 8.44659 22.6329 8.18611C22.6645 8.15377 22.6957 8.12186 22.7266 8.091C22.8975 7.92013 23.1292 7.82414 23.3708 7.82414C23.6125 7.82414 23.8442 7.92013 24.0151 8.091C24.046 8.12186 24.0772 8.15377 24.1088 8.18611C24.3636 8.44659 24.646 8.73526 24.9976 8.73526H25.1981Z" fill="#E98305"/>
<path d="M26.26 12.0712H27.1962H28.1127V10.0452C28.1127 10.0452 28.9673 9.97772 28.9673 9.17354C28.9673 8.62929 28.5541 8.41162 28.3334 8.41162C28.1127 8.41162 28.1127 8.41162 28.1127 8.41162H26.9916C26.5875 8.41162 26.26 8.73916 26.26 9.1432V10.0452V12.0712Z" fill="#E98305"/>
<path d="M36.5045 12.0712H35.5683H34.6518V10.0452C34.6518 10.0452 33.7972 9.97772 33.7972 9.17354C33.7972 8.62929 34.2104 8.41162 34.4311 8.41162C34.6518 8.41162 34.6518 8.41162 34.6518 8.41162H35.7729C36.177 8.41162 36.5045 8.73916 36.5045 9.1432V10.0452V12.0712Z" fill="#E98305"/>
</svg>
